FFmpeg: ffmpeg version 7.0 Copyright (c) 2000-2024 the FFmpeg developers
FFmpeg: built with Apple clang version 15.0.0 (clang-1500.3.9.4)
FFmpeg: configuration: --prefix=/opt/homebrew/Cellar/ffmpeg/7.0_1 --enable-shared --enable-pthreads --enable-version3 --cc=clang --host-cflags= --host-ldflags='-Wl,-ld_classic' --enable-ffplay --enable-gnutls --enable-gpl --enable-libaom --enable-libaribb24 --enable-libbluray --enable-libdav1d --enable-libharfbuzz --enable-libjxl --enable-libmp3lame --enable-libopus --enable-librav1e --enable-librist --enable-librubberband --enable-libsnappy --enable-libsrt --enable-libssh --enable-libsvtav1 --enable-libtesseract --enable-libtheora --enable-libvidstab --enable-libvmaf --enable-libvorbis --enable-libvpx --enable-libwebp --enable-libx264 --enable-libx265 --enable-libxml2 --enable-libxvid --enable-lzma --enable-libfontconfig --enable-libfreetype --enable-frei0r --enable-libass --enable-libopencore-amrnb --enable-libopencore-amrwb --enable-libopenjpeg --enable-libspeex --enable-libsoxr --enable-libzmq --enable-libzimg --disable-libjack --disable-indev=jack --enable-videotoolbox --enable-audiotoolbox --enable-neon
FFmpeg: libavutil      59.  8.100 / 59.  8.100
FFmpeg: libavcodec     61.  3.100 / 61.  3.100
FFmpeg: libavformat    61.  1.100 / 61.  1.100
FFmpeg: libavdevice    61.  1.100 / 61.  1.100
FFmpeg: libavfilter    10.  1.100 / 10.  1.100
FFmpeg: libswscale      8.  1.100 /  8.  1.100
FFmpeg: libswresample   5.  1.100 /  5.  1.100
FFmpeg: libpostproc    58.  1.100 / 58.  1.100
FFmpeg: -vsync is deprecated. Use -fps_mode
FFmpeg: Passing a number to -vsync is deprecated, use a string argument as described in the manual.
FFmpeg: 2024-09-27 01:51:49.281 ffmpeg[51172:1274531] WARNING: Add NSCameraUseContinuityCameraDeviceType to your Info.plist to use AVCaptureDeviceTypeContinuityCamera.
FFmpeg: [avfoundation @ 0x149e2bce0] Selected pixel format (yuv420p) is not supported by the input device.
FFmpeg: [avfoundation @ 0x149e2bce0] Supported pixel formats:
FFmpeg: [avfoundation @ 0x149e2bce0]   uyvy422
FFmpeg: [avfoundation @ 0x149e2bce0]   yuyv422
FFmpeg: [avfoundation @ 0x149e2bce0]   nv12
FFmpeg: [avfoundation @ 0x149e2bce0]   0rgb
FFmpeg: [avfoundation @ 0x149e2bce0]   bgr0
FFmpeg: [avfoundation @ 0x149e2bce0] Overriding selected pixel format to use uyvy422 instead.
FFmpeg: Input #0, avfoundation, from '0:0':
FFmpeg: Duration: N/A, start: 92169.242070, bitrate: N/A
FFmpeg: Stream #0:0: Video: rawvideo (UYVY / 0x59565955), uyvy422, 1280x720, 30 tbr, 1000k tbn
FFmpeg: Stream #0:1: Audio: pcm_f32le, 48000 Hz, mono, flt, 1536 kb/s
FFmpeg: Multiple -pix_fmt options specified for stream 0, only the last option '-pix_fmt yuv420p' will be used.
FFmpeg: Stream mapping:
FFmpeg: Stream #0:0 -> #0:0 (rawvideo (native) -> h264 (libx264))
FFmpeg: Stream #0:1 -> #0:1 (pcm_f32le (native) -> aac (native))
FFmpeg: Press [q] to stop, [?] for help
FFmpeg: [libx264 @ 0x149fb39a0] using cpu capabilities: ARMv8 NEON
FFmpeg: [libx264 @ 0x149fb39a0] profile High, level 2.1, 4:2:0, 8-bit
FFmpeg: [libx264 @ 0x149fb39a0] 264 - core 164 r3108 31e19f9 - H.264/MPEG-4 AVC codec - Copyleft 2003-2023 - http://www.videolan.org/x264.html - options: cabac=1 ref=1 deblock=1:0:0 analyse=0x3:0x113 me=hex subme=2 psy=1 psy_rd=1.00:0.00 mixed_ref=0 me_range=16 chroma_me=1 trellis=0 8x8dct=1 cqm=0 deadzone=21,11 fast_pskip=1 chroma_qp_offset=0 threads=4 lookahead_threads=4 sliced_threads=1 slices=4 nr=0 decimate=1 interlaced=0 bluray_compat=0 constrained_intra=0 bframes=0 weightp=1 keyint=60 keyint_min=31 scenecut=0 intra_refresh=0 rc_lookahead=0 rc=abr mbtree=0 bitrate=2000 ratetol=1.0 qcomp=0.60 qpmin=0 qpmax=69 qpstep=4 vbv_maxrate=2500 vbv_bufsize=2500 nal_hrd=none filler=0 ip_ratio=1.40 aq=1:1.00
FFmpeg: Output #0, flv, to 'rtmps://live.cloudflare.com:443/live/1382f11e076b4918e592232ac7b47ebekd8c1847e4169930920167de9ba4aa5ce':
FFmpeg: Metadata:
FFmpeg: encoder         : Lavf61.1.100
FFmpeg: Stream #0:0: Video: h264 ([7][0][0][0] / 0x0007), yuv420p(progressive), 480x270, q=2-31, 2000 kb/s, 30 fps, 1k tbn
FFmpeg: Metadata:
FFmpeg: encoder         : Lavc61.3.100 libx264
FFmpeg: Side data:
FFmpeg: cpb: bitrate max/min/avg: 2500000/0/2000000 buffer size: 2500000 vbv_delay: N/A
FFmpeg: Stream #0:1: Audio: aac (LC) ([10][0][0][0] / 0x000A), 44100 Hz, mono, fltp, 128 kb/s
FFmpeg: Metadata:
FFmpeg: encoder         : Lavc61.3.100 aac
FFmpeg: frame=   37 fps=0.0 q=13.0 size=     276KiB time=00:00:01.16 bitrate=1944.8kbits/s dup=15 drop=0 speed= 2.3x    frame=   52 fps= 51 q=10.0 size=     375KiB time=00:00:01.67 bitrate=1839.5kbits/s dup=15 drop=0 speed=1.66x    frame=   67 fps= 44 q=11.0 size=     486KiB time=00:00:02.13 bitrate=1864.3kbits/s dup=15 drop=0 speed=1.41x    frame=   82 fps= 41 q=12.0 size=     622KiB time=00:00:02.67 bitrate=1907.4kbits/s dup=15 drop=0 speed=1.32x    frame=   97 fps= 38 q=13.0 size=     767KiB time=00:00:03.22 bitrate=1946.3kbits/s dup=15 drop=0 speed=1.28x    frame=  112 fps= 37 q=13.0 size=     887KiB time=00:00:03.66 bitrate=1981.3kbits/s dup=15 drop=0 speed=1.21x    frame=  127 fps= 36 q=12.0 size=    1045KiB time=00:00:04.22 bitrate=2025.0kbits/s dup=15 drop=0 speed= 1.2x    frame=  142 fps= 35 q=11.0 size=    1165KiB time=00:00:04.69 bitrate=2034.3kbits/s dup=15 drop=0 speed=1.16x    frame=  158 fps= 35 q=12.0 size=    1320KiB time=00:00:05.22 bitrate=2069.4kbits/s dup=15 drop=0 speed=1.15x    frame=  173 fps= 34 q=12.0 size=    1444KiB time=00:00:05.66 bitrate=2088.1kbits/s dup=15 drop=0 speed=1.12x    frame=  188 fps= 34 q=12.0 size=    1602KiB time=00:00:06.22 bitrate=2109.1kbits/s dup=15 drop=0 speed=1.12x    frame=  203 fps= 34 q=11.0 size=    1717KiB time=00:00:06.66 bitrate=2111.1kbits/s dup=15 drop=0 speed= 1.1x    frame=  218 fps= 33 q=12.0 size=    1859KiB time=00:00:07.19 bitrate=2115.1kbits/s dup=15 drop=0 speed= 1.1x    frame=  233 fps= 33 q=11.0 size=    1994KiB time=00:00:07.75 bitrate=2106.2kbits/s dup=15 drop=0 speed= 1.1x    frame=  249 fps= 33 q=11.0 size=    2118KiB time=00:00:08.22 bitrate=2110.4kbits/s dup=15 drop=0 speed=1.09x    frame=  264 fps= 33 q=11.0 size=    2260KiB time=00:00:08.77 bitrate=2109.4kbits/s dup=15 drop=0 speed=1.09x    frame=  279 fps= 33 q=12.0 size=    2373KiB time=00:00:09.19 bitrate=2113.7kbits/s dup=15 drop=0 speed=1.07x    frame=  294 fps= 32 q=11.0 size=    2513KiB time=00:00:09.75 bitrate=2110.8kbits/s dup=15 drop=0 speed=1.07x    frame=  309 fps= 32 q=11.0 size=    2653KiB time=00:00:10.28 bitrate=2113.0kbits/s dup=15 drop=0 speed=1.07x    frame=  324 fps= 32 q=11.0 size=    2773KiB time=00:00:10.72 bitrate=2117.1kbits/s dup=15 drop=0 speed=1.06x    frame=  339 fps= 32 q=11.0 size=    2910KiB time=00:00:11.26 bitrate=2116.8kbits/s dup=15 drop=0 speed=1.06x    frame=  354 fps= 32 q=11.0 size=    3025KiB time=00:00:11.70 bitrate=2117.4kbits/s dup=15 drop=0 speed=1.06x    frame=  369 fps= 32 q=10.0 size=    3175KiB time=00:00:12.28 bitrate=2117.7kbits/s dup=15 drop=0 speed=1.06x    frame=  384 fps= 32 q=11.0 size=    3289KiB time=00:00:12.70 bitrate=2121.3kbits/s dup=15 drop=0 speed=1.05x    frame=  399 fps= 32 q=11.0 size=    3429KiB time=00:00:13.25 bitrate=2118.4kbits/s dup=15 drop=0 speed=1.05x    frame=  415 fps= 32 q=10.0 size=    3576KiB time=00:00:13.79 bitrate=2123.7kbits/s dup=15 drop=0 speed=1.05x    frame=  430 fps= 32 q=10.0 size=    3694KiB time=00:00:14.23 bitrate=2126.1kbits/s dup=15 drop=0 speed=1.05x    frame=  444 fps= 31 q=10.0 size=    3831KiB time=00:00:14.79 bitrate=2121.6kbits/s dup=15 drop=0 speed=1.05x    frame=  460 fps= 31 q=11.0 size=    3956KiB time=00:00:15.23 bitrate=2127.3kbits/s dup=15 drop=0 speed=1.04x    frame=  475 fps= 31 q=11.0 size=    4099KiB time=00:00:15.78 bitrate=2126.5kbits/s dup=15 drop=0 speed=1.04x    frame=  490 fps= 31 q=11.0 size=    4237KiB time=00:00:16.30 bitrate=2129.1kbits/s dup=15 drop=0 speed=1.04x    frame=  505 fps= 31 q=10.0 size=    4353KiB time=00:00:16.74 bitrate=2130.2kbits/s dup=15 drop=0 speed=1.04x    frame=  520 fps= 31 q=10.0 size=    4494KiB time=00:00:17.27 bitrate=2130.9kbits/s dup=15 drop=0 speed=1.04x    frame=  535 fps= 31 q=11.0 size=    4635KiB time=00:00:17.81 bitrate=2132.0kbits/s dup=15 drop=0 speed=1.04x    frame=  550 fps= 31 q=11.0 size=    4760KiB time=00:00:18.25 bitrate=2136.4kbits/s dup=15 drop=0 speed=1.04x    frame=  565 fps= 31 q=11.0 size=    4900KiB time=00:00:18.80 bitrate=2134.2kbits/s dup=15 drop=0 speed=1.04x    frame=  581 fps= 31 q=11.0 size=    5041KiB time=00:00:19.31 bitrate=2137.4kbits/s dup=15 drop=0 speed=1.04x    frame=  596 fps= 31 q=10.0 size=    5166KiB time=00:00:19.78 bitrate=2139.1kbits/s dup=15 drop=0 speed=1.03x    frame=  611 fps= 31 q=11.0 size=    5311KiB time=00:00:20.31 bitrate=2141.2kbits/s dup=15 drop=0 speed=1.03x    frame=  626 fps= 31 q=12.0 size=    5433KiB time=00:00:20.75 bitrate=2143.8kbits/s dup=15 drop=0 speed=1.03x    frame=  641 fps= 31 q=11.0 size=    5584KiB time=00:00:21.33 bitrate=2143.5kbits/s dup=15 drop=0 speed=1.03x    frame=  656 fps= 31 q=11.0 size=    5713KiB time=00:00:21.78 bitrate=2148.7kbits/s dup=15 drop=0 speed=1.03x    frame=  671 fps= 31 q=11.0 size=    5862KiB time=00:00:22.29 bitrate=2154.2kbits/s dup=15 drop=0 speed=1.03x    frame=  687 fps= 31 q=11.0 size=    6012KiB time=00:00:22.87 bitrate=2153.2kbits/s dup=15 drop=0 speed=1.03x    frame=  701 fps= 31 q=11.0 size=    6127KiB time=00:00:23.31 bitrate=2152.9kbits/s dup=15 drop=0 speed=1.03x    frame=  717 fps= 31 q=12.0 size=    6278KiB time=00:00:23.87 bitrate=2154.4kbits/s dup=15 drop=0 speed=1.03x    frame=  732 fps= 31 q=11.0 size=    6396KiB time=00:00:24.31 bitrate=2155.3kbits/s dup=15 drop=0 speed=1.03x    frame=  747 fps= 31 q=11.0 size=    6536KiB time=00:00:24.86 bitrate=2153.1kbits/s dup=15 drop=0 speed=1.03x    frame=  762 fps= 31 q=11.0 size=    6658KiB time=00:00:25.31 bitrate=2155.1kbits/s dup=15 drop=0 speed=1.03x    frame=  777 fps= 31 q=10.0 size=    6799KiB time=00:00:25.84 bitrate=2155.0kbits/s dup=15 drop=0 speed=1.03x    frame=  792 fps= 31 q=11.0 size=    6939KiB time=00:00:26.40 bitrate=2153.3kbits/s dup=15 drop=0 speed=1.03x    frame=  807 fps= 31 q=11.0 size=    7051KiB time=00:00:26.84 bitrate=2152.0kbits/s dup=15 drop=0 speed=1.02x    frame=  822 fps= 31 q=11.0 size=    7198KiB time=00:00:27.39 bitrate=2152.1kbits/s dup=15 drop=0 speed=1.03x    frame=  837 fps= 31 q=10.0 size=    7312KiB time=00:00:27.81 bitrate=2153.4kbits/s dup=15 drop=0 speed=1.02x    frame=  852 fps= 31 q=11.0 size=    7454KiB time=00:00:28.37 bitrate=2151.9kbits/s dup=15 drop=0 speed=1.02x    frame=  868 fps= 31 q=11.0 size=    7575KiB time=00:00:28.83 bitrate=2151.7kbits/s dup=15 drop=0 speed=1.02x    frame=  883 fps= 31 q=12.0 size=    7715KiB time=00:00:29.37 bitrate=2151.6kbits/s dup=15 drop=0 speed=1.02x    frame=  899 fps= 31 q=11.0 size=    7857KiB time=00:00:29.90 bitrate=2152.2kbits/s dup=15 drop=0 speed=1.02x    frame=  914 fps= 31 q=11.0 size=    7975KiB time=00:00:30.34 bitrate=2152.5kbits/s dup=15 drop=0 speed=1.02x    frame=  929 fps= 31 q=13.0 size=    8125KiB time=00:00:30.90 bitrate=2153.7kbits/s dup=15 drop=0 speed=1.02x    frame=  944 fps= 31 q=12.0 size=    8236KiB time=00:00:31.34 bitrate=2152.2kbits/s dup=15 drop=0 speed=1.02x    frame=  959 fps= 31 q=11.0 size=    8361KiB time=00:00:31.88 bitrate=2148.3kbits/s dup=15 drop=0 speed=1.02x    frame=  974 fps= 31 q=11.0 size=    8492KiB time=00:00:32.43 bitrate=2144.5kbits/s dup=15 drop=0 speed=1.02x    frame=  989 fps= 31 q=11.0 size=    8608KiB time=00:00:32.87 bitrate=2144.7kbits/s dup=15 drop=0 speed=1.02x    frame= 1004 fps= 31 q=12.0 size=    8745KiB time=00:00:33.43 bitrate=2142.4kbits/s dup=15 drop=0 speed=1.02x    frame= 1020 fps= 31 q=11.0 size=    8872KiB time=00:00:33.90 bitrate=2143.9kbits/s dup=15 drop=0 speed=1.02x    frame= 1034 fps= 31 q=11.0 size=    9009KiB time=00:00:34.45 bitrate=2141.7kbits/s dup=15 drop=0 speed=1.02x    frame= 1049 fps= 31 q=11.0 size=    9117KiB time=00:00:34.90 bitrate=2139.9kbits/s dup=15 drop=0 speed=1.02x    frame= 1065 fps= 31 q=10.0 size=    9258KiB time=00:00:35.45 bitrate=2138.9kbits/s dup=15 drop=0 speed=1.02x    frame= 1080 fps= 31 q=11.0 size=    9370KiB time=00:00:35.87 bitrate=2139.5kbits/s dup=15 drop=0 speed=1.02x    frame= 1095 fps= 31 q=11.0 size=    9512KiB time=00:00:36.43 bitrate=2138.9kbits/s dup=15 drop=0 speed=1.02x    frame= 1110 fps= 31 q=10.0 size=    9657KiB time=00:00:36.96 bitrate=2140.1kbits/s dup=15 drop=0 speed=1.02x    frame= 1125 fps= 31 q=10.0 size=    9760KiB time=00:00:37.40 bitrate=2137.3kbits/s dup=15 drop=0 speed=1.02x    frame= 1140 fps= 31 q=10.0 size=    9905KiB time=00:00:37.96 bitrate=2137.3kbits/s dup=15 drop=0 speed=1.02x    frame= 1155 fps= 31 q=10.0 size=   10018KiB time=00:00:38.38 bitrate=2138.2kbits/s dup=15 drop=0 speed=1.02x    frame= 1170 fps= 31 q=10.0 size=   10162KiB time=00:00:38.94 bitrate=2137.9kbits/s dup=15 drop=0 speed=1.02x    frame= 1185 fps= 31 q=11.0 size=   10276KiB time=00:00:39.38 bitrate=2137.5kbits/s dup=15 drop=0 speed=1.02x    frame= 1201 fps= 31 q=7.0 size=   10425KiB time=00:00:39.93 bitrate=2138.2kbits/s dup=15 drop=0 speed=1.02x    frame= 1216 fps= 31 q=11.0 size=   10560KiB time=00:00:40.44 bitrate=2138.7kbits/s dup=15 drop=0 speed=1.02x    frame= 1231 fps= 31 q=11.0 size=   10682KiB time=00:00:40.91 bitrate=2138.8kbits/s dup=15 drop=0 speed=1.02x    frame= 1246 fps= 31 q=11.0 size=   10823KiB time=00:00:41.44 bitrate=2139.0kbits/s dup=15 drop=0 speed=1.02x    frame= 1261 fps= 31 q=8.0 size=   10962KiB time=00:00:42.00 bitrate=2137.7kbits/s dup=15 drop=0 speed=1.02x    frame= 1276 fps= 31 q=11.0 size=   11087KiB time=00:00:42.44 bitrate=2139.7kbits/s dup=15 drop=0 speed=1.02x    frame= 1291 fps= 31 q=12.0 size=   11229KiB time=00:00:42.98 bitrate=2140.2kbits/s dup=15 drop=0 speed=1.02x    frame= 1306 fps= 31 q=13.0 size=   11359KiB time=00:00:43.44 bitrate=2141.9kbits/s dup=15 drop=0 speed=1.01x    frame= 1321 fps= 30 q=9.0 size=   11520KiB time=00:00:44.00 bitrate=2144.8kbits/s dup=15 drop=0 speed=1.02x    frame= 1337 fps= 31 q=12.0 size=   11666KiB time=00:00:44.46 bitrate=2149.3kbits/s dup=15 drop=0 speed=1.01x    frame= 1351 fps= 30 q=11.0 size=   11791KiB time=00:00:45.00 bitrate=2146.4kbits/s dup=15 drop=0 speed=1.02x    frame= 1367 fps= 30 q=12.0 size=   11915KiB time=00:00:45.44 bitrate=2148.1kbits/s dup=15 drop=0 speed=1.01x    frame= 1382 fps= 30 q=13.0 size=   12057KiB time=00:00:45.99 bitrate=2147.2kbits/s dup=15 drop=0 speed=1.01x    frame= 1397 fps= 30 q=11.0 size=   12191KiB time=00:00:46.55 bitrate=2145.1kbits/s dup=15 drop=0 speed=1.02x    frame= 1412 fps= 30 q=11.0 size=   12300KiB time=00:00:46.99 bitrate=2143.9kbits/s dup=15 drop=0 speed=1.01x    frame= 1427 fps= 30 q=11.0 size=   12435KiB time=00:00:47.53 bitrate=2143.2kbits/s dup=15 drop=0 speed=1.01x    frame= 1442 fps= 30 q=12.0 size=   12547KiB time=00:00:47.97 bitrate=2142.5kbits/s dup=15 drop=0 speed=1.01x    frame= 1457 fps= 30 q=12.0 size=   12685KiB time=00:00:48.50 bitrate=2142.4kbits/s dup=15 drop=0 speed=1.01x    frame= 1472 fps= 30 q=11.0 size=   12809KiB time=00:00:48.97 bitrate=2142.8kbits/s dup=15 drop=0 speed=1.01x    frame= 1487 fps= 30 q=10.0 size=   12946KiB time=00:00:49.50 bitrate=2142.3kbits/s dup=15 drop=0 speed=1.01x    frame= 1502 fps= 30 q=12.0 size=   13107KiB time=00:00:50.06 bitrate=2144.8kbits/s dup=15 drop=0 speed=1.01x    frame= 1517 fps= 30 q=11.0 size=   13208KiB time=00:00:50.50 bitrate=2142.4kbits/s dup=15 drop=0 speed=1.01x    frame= 1533 fps= 30 q=11.0 size=   13356KiB time=00:00:51.03 bitrate=2143.7kbits/s dup=15 drop=0 speed=1.01x    frame= 1548 fps= 30 q=11.0 size=   13470KiB time=00:00:51.47 bitrate=2143.5kbits/s dup=15 drop=0 speed=1.01x    frame= 1563 fps= 30 q=12.0 size=   13634KiB time=00:00:52.03 bitrate=2146.3kbits/s dup=15 drop=0 speed=1.01x    frame= 1578 fps= 30 q=11.0 size=   13729KiB time=00:00:52.47 bitrate=2143.1kbits/s dup=15 drop=0 speed=1.01x    frame= 1593 fps= 30 q=10.0 size=   13881KiB time=00:00:53.01 bitrate=2145.0kbits/s dup=15 drop=0 speed=1.01x    frame= 1608 fps= 30 q=11.0 size=   14026KiB time=00:00:53.56 bitrate=2144.9kbits/s dup=15 drop=0 speed=1.01x    frame= 1623 fps= 30 q=12.0 size=   14133KiB time=00:00:53.98 bitrate=2144.6kbits/s dup=15 drop=0 speed=1.01x    frame= 1638 fps= 30 q=10.0 size=   14273KiB time=00:00:54.52 bitrate=2144.6kbits/s dup=15 drop=0 speed=1.01x    frame= 1653 fps= 30 q=10.0 size=   14409KiB time=00:00:55.05 bitrate=2144.0kbits/s dup=15 drop=0 speed=1.01x    frame= 1669 fps= 30 q=10.0 size=   14546KiB time=00:00:55.58 bitrate=2143.6kbits/s dup=15 drop=0 speed=1.01x    frame= 1683 fps= 30 q=11.0 size=   14654KiB time=00:00:56.03 bitrate=2142.5kbits/s dup=15 drop=0 speed=1.01x    frame= 1698 fps= 30 q=11.0 size=   14796KiB time=00:00:56.56 bitrate=2142.9kbits/s dup=15 drop=0 speed=1.01x    frame= 1714 fps= 30 q=13.0 size=   14923KiB time=00:00:57.02 bitrate=2143.6kbits/s dup=15 drop=0 speed=1.01x    frame= 1728 fps= 30 q=14.0 size=   15111KiB time=00:00:57.56 bitrate=2150.5kbits/s dup=15 drop=0 speed=1.01x    frame= 1744 fps= 30 q=15.0 size=   15325KiB time=00:00:58.11 bitrate=2160.0kbits/s dup=15 drop=0 speed=1.01x    frame= 1759 fps= 30 q=14.0 size=   15460KiB time=00:00:58.51 bitrate=2164.4kbits/s dup=15 drop=0 speed=1.01x    frame= 1774 fps= 30 q=13.0 size=   15605KiB time=00:00:59.07 bitrate=2164.0kbits/s dup=15 drop=0 speed=1.01x    frame= 1789 fps= 30 q=14.0 size=   15733KiB time=00:00:59.62 bitrate=2161.4kbits/s dup=15 drop=0 speed=1.01x    frame= 1804 fps= 30 q=14.0 size=   15853KiB time=00:01:00.07 bitrate=2162.0kbits/s dup=15 drop=0 speed=1.01x    frame= 1819 fps= 30 q=13.0 size=   15980KiB time=00:01:00.62 bitrate=2159.2kbits/s dup=15 drop=0 speed=1.01x    frame= 1835 fps= 30 q=13.0 size=   16084KiB time=00:01:01.04 bitrate=2158.4kbits/s dup=15 drop=0 speed=1.01x    frame= 1849 fps= 30 q=14.0 size=   16208KiB time=00:01:01.57 bitrate=2156.2kbits/s dup=15 drop=0 speed=1.01x    frame= 1865 fps= 30 q=15.0 size=   16364KiB time=00:01:02.11 bitrate=2158.1kbits/s dup=15 drop=0 speed=1.01x    frame= 1879 fps= 30 q=13.0 size=   16494KiB time=00:01:02.57 bitrate=2159.2kbits/s dup=15 drop=0 speed=1.01x    frame= 1894 fps= 30 q=12.0 size=   16650KiB time=00:01:03.11 bitrate=2161.2kbits/s dup=15 drop=0 speed=1.01x    frame= 1909 fps= 30 q=13.0 size=   16791KiB time=00:01:03.63 bitrate=2161.6kbits/s dup=15 drop=0 speed=1.01x    frame= 1925 fps= 30 q=15.0 size=   16933KiB time=00:01:04.11 bitrate=2163.7kbits/s dup=15 drop=0 speed=1.01x    frame= 1940 fps= 30 q=14.0 size=   17055KiB time=00:01:04.62 bitrate=2162.0kbits/s dup=15 drop=0 speed=1.01x    frame= 1955 fps= 30 q=14.0 size=   17168KiB time=00:01:05.10 bitrate=2160.1kbits/s dup=15 drop=0 speed=1.01x    frame= 1970 fps= 30 q=13.0 size=   17285KiB time=00:01:05.57 bitrate=2159.4kbits/s dup=15 drop=0 speed=1.01x    frame= 1985 fps= 30 q=12.0 size=   17414KiB time=00:01:06.10 bitrate=2158.0kbits/s dup=15 drop=0 speed=1.01x    frame= 2000 fps= 30 q=12.0 size=   17512KiB time=00:01:06.59 bitrate=2154.2kbits/s dup=15 drop=0 speed=1.01x    frame= 2015 fps= 30 q=17.0 size=   17650KiB time=00:01:07.08 bitrate=2155.4kbits/s dup=15 drop=0 speed=1.01x    frame= 2031 fps= 30 q=17.0 size=   17884KiB time=00:01:07.66 bitrate=2165.2kbits/s dup=15 drop=0 speed=1.01x    frame= 2046 fps= 30 q=18.0 size=   18095KiB time=00:01:08.12 bitrate=2175.8kbits/s dup=15 drop=0 speed=1.01x    frame= 2061 fps= 30 q=17.0 size=   18286KiB time=00:01:08.63 bitrate=2182.4kbits/s dup=15 drop=0 speed=1.01x    frame= 2076 fps= 30 q=19.0 size=   18445KiB time=00:01:09.12 bitrate=2185.9kbits/s dup=15 drop=0 speed=1.01x    frame= 2091 fps= 30 q=18.0 size=   18631KiB time=00:01:09.70 bitrate=2189.7kbits/s dup=15 drop=0 speed=1.01x    frame= 2106 fps= 30 q=18.0 size=   18784KiB time=00:01:10.17 bitrate=2192.9kbits/s dup=15 drop=0 speed=1.01x    frame= 2121 fps= 30 q=18.0 size=   18909KiB time=00:01:10.65 bitrate=2192.2kbits/s dup=15 drop=0 speed=1.01x    frame= 2136 fps= 30 q=17.0 size=   19015KiB time=00:01:11.12 bitrate=2190.2kbits/s dup=15 drop=0 speed=1.01x    frame= 2151 fps= 30 q=16.0 size=   19113KiB time=00:01:11.68 bitrate=2184.4kbits/s dup=15 drop=0 speed=1.01x    frame= 2166 fps= 30 q=15.0 size=   19208KiB time=00:01:12.19 bitrate=2179.6kbits/s dup=15 drop=0 speed=1.01x    frame= 2182 fps= 30 q=14.0 size=   19303KiB time=00:01:12.70 bitrate=2175.0kbits/s dup=15 drop=0 speed=1.01x    frame= 2197 fps= 30 q=14.0 size=   19393KiB time=00:01:13.21 bitrate=2170.0kbits/s dup=15 drop=0 speed=1.01x    frame= 2212 fps= 30 q=12.0 size=   19477KiB time=00:01:13.63 bitrate=2167.0kbits/s dup=15 drop=0 speed=1.01x    frame= 2227 fps= 30 q=14.0 size=   19569KiB time=00:01:14.14 bitrate=2162.2kbits/s dup=15 drop=0 speed=1.01x    frame= 2242 fps= 30 q=15.0 size=   19694KiB time=00:01:14.73 bitrate=2158.8kbits/s dup=15 drop=0 speed=1.01x    frame= 2257 fps= 30 q=14.0 size=   19798KiB time=00:01:15.23 bitrate=2155.8kbits/s dup=15 drop=0 speed=1.01x    frame= 2272 fps= 30 q=15.0 size=   19922KiB time=00:01:15.72 bitrate=2155.3kbits/s dup=15 drop=0 speed=1.01x    frame= 2288 fps= 30 q=16.0 size=   20101KiB time=00:01:16.23 bitrate=2160.0kbits/s dup=15 drop=0 speed=1.01x    frame= 2303 fps= 30 q=14.0 size=   20222KiB time=00:01:16.74 bitrate=2158.7kbits/s dup=15 drop=0 speed=1.01x    frame= 2318 fps= 30 q=15.0 size=   20350KiB time=00:01:17.22 bitrate=2158.6kbits/s dup=15 drop=0 speed=1.01x    frame= 2333 fps= 30 q=14.0 size=   20442KiB time=00:01:17.67 bitrate=2156.0kbits/s dup=15 drop=0 speed=1.01x    frame= 2348 fps= 30 q=12.0 size=   20551KiB time=00:01:18.22 bitrate=2152.1kbits/s dup=15 drop=0 speed=1.01x    frame= 2363 fps= 30 q=13.0 size=   20655KiB time=00:01:18.71 bitrate=2149.6kbits/s dup=15 drop=0 speed=1.01x    frame= 2377 fps= 30 q=14.0 size=   20797KiB time=00:01:19.23 bitrate=2150.2kbits/s dup=15 drop=0 speed=1.01x    frame= 2393 fps= 30 q=16.0 size=   20927KiB time=00:01:19.66 bitrate=2151.8kbits/s dup=15 drop=0 speed=1.01x    frame= 2408 fps= 30 q=15.0 size=   21099KiB time=00:01:20.20 bitrate=2155.1kbits/s dup=15 drop=0 speed=1.01x    frame= 2424 fps= 30 q=16.0 size=   21285KiB time=00:01:20.75 bitrate=2159.0kbits/s dup=15 drop=0 speed=1.01x    frame= 2438 fps= 30 q=16.0 size=   21432KiB time=00:01:21.26 bitrate=2160.4kbits/s dup=15 drop=0 speed=1.01x    frame= 2454 fps= 30 q=16.0 size=   21579KiB time=00:01:21.73 bitrate=2162.8kbits/s dup=15 drop=0 speed=1.01x    frame= 2469 fps= 30 q=16.0 size=   21708KiB time=00:01:22.19 bitrate=2163.4kbits/s dup=15 drop=0 speed=1.01x    frame= 2484 fps= 30 q=15.0 size=   21843KiB time=00:01:22.75 bitrate=2162.2kbits/s dup=15 drop=0 speed=1.01x    frame= 2499 fps= 30 q=15.0 size=   21963KiB time=00:01:23.26 bitrate=2160.8kbits/s dup=15 drop=0 speed=1.01x    frame= 2514 fps= 30 q=15.0 size=   22061KiB time=00:01:23.77 bitrate=2157.2kbits/s dup=15 drop=0 speed=1.01x    frame= 2529 fps= 30 q=14.0 size=   22162KiB time=00:01:24.30 bitrate=2153.6kbits/s dup=15 drop=0 speed=1.01x    frame= 2545 fps= 30 q=13.0 size=   22248KiB time=00:01:24.75 bitrate=2150.4kbits/s dup=15 drop=0 speed=1.01x    frame= 2560 fps= 30 q=13.0 size=   22346KiB time=00:01:25.31 bitrate=2145.8kbits/s dup=15 drop=0 speed=1.01x    frame= 2576 fps= 30 q=13.0 size=   22455KiB time=00:01:25.79 bitrate=2144.0kbits/s dup=15 drop=0 speed=1.01x    frame= 2591 fps= 30 q=12.0 size=   22545KiB time=00:01:26.23 bitrate=2141.6kbits/s dup=15 drop=0 speed=1.01x    frame= 2606 fps= 30 q=11.0 size=   22656KiB time=00:01:26.79 bitrate=2138.3kbits/s dup=15 drop=0 speed=1.01x    frame= 2621 fps= 30 q=12.0 size=   22752KiB time=00:01:27.26 bitrate=2135.9kbits/s dup=15 drop=0 speed=1.01x    frame= 2636 fps= 30 q=11.0 size=   22876KiB time=00:01:27.79 bitrate=2134.5kbits/s dup=15 drop=0 speed=1.01x    frame= 2651 fps= 30 q=11.0 size=   22984KiB time=00:01:28.25 bitrate=2133.3kbits/s dup=15 drop=0 speed=1.01x    frame= 2666 fps= 30 q=10.0 size=   23096KiB time=00:01:28.79 bitrate=2130.9kbits/s dup=15 drop=0 speed=1.01x    frame= 2681 fps= 30 q=11.0 size=   23207KiB time=00:01:29.23 bitrate=2130.5kbits/s dup=15 drop=0 speed=1.01x    frame= 2696 fps= 30 q=10.0 size=   23337KiB time=00:01:29.79 bitrate=2129.1kbits/s dup=15 drop=0 speed=1.01x    frame= 2711 fps= 30 q=11.0 size=   23477KiB time=00:01:30.34 bitrate=2128.6kbits/s dup=15 drop=0 speed=1.01x    frame= 2727 fps= 30 q=11.0 size=   23591KiB time=00:01:30.81 bitrate=2128.1kbits/s dup=15 drop=0 speed=1.01x    frame= 2742 fps= 30 q=12.0 size=   23725KiB time=00:01:31.34 bitrate=2127.6kbits/s dup=15 drop=0 speed=1.01x    frame= 2757 fps= 30 q=12.0 size=   23843KiB time=00:01:31.78 bitrate=2127.9kbits/s dup=15 drop=0 speed=1.01x    frame= 2772 fps= 30 q=13.0 size=   24011KiB time=00:01:32.34 bitrate=2130.0kbits/s dup=15 drop=0 speed=1.01x    frame= 2787 fps= 30 q=11.0 size=   24129KiB time=00:01:32.76 bitrate=2130.8kbits/s dup=15 drop=0 speed=1.01x    frame= 2802 fps= 30 q=11.0 size=   24262KiB time=00:01:33.29 bitrate=2130.3kbits/s dup=15 drop=0 speed=1.01x    frame= 2817 fps= 30 q=11.0 size=   24403KiB time=00:01:33.85 bitrate=2130.0kbits/s dup=15 drop=0 speed=1.01x    frame= 2832 fps= 30 q=10.0 size=   24521KiB time=00:01:34.29 bitrate=2130.2kbits/s dup=15 drop=0 speed=1.01x    frame= 2847 fps= 30 q=10.0 size=   24649KiB time=00:01:34.85 bitrate=2128.8kbits/s dup=15 drop=0 speed=1.01x    frame= 2862 fps= 30 q=10.0 size=   24755KiB time=00:01:35.27 bitrate=2128.6kbits/s dup=15 drop=0 speed=1.01x    frame= 2878 fps= 30 q=10.0 size=   24895KiB time=00:01:35.82 bitrate=2128.2kbits/s dup=15 drop=0 speed=1.01x    frame= 2893 fps= 30 q=10.0 size=   25029KiB time=00:01:36.38 bitrate=2127.2kbits/s dup=15 drop=0 speed=1.01x    frame= 2908 fps= 30 q=10.0 size=   25132KiB time=00:01:36.82 bitrate=2126.2kbits/s dup=15 drop=0 speed=1.01x    frame= 2923 fps= 30 q=9.0 size=   25272KiB time=00:01:37.38 bitrate=2125.9kbits/s dup=15 drop=0 speed=1.01x    frame= 2938 fps= 30 q=9.0 size=   25405KiB time=00:01:37.89 bitrate=2125.9kbits/s dup=15 drop=0 speed=1.01x    frame= 2953 fps= 30 q=10.0 size=   25515KiB time=00:01:38.33 bitrate=2125.5kbits/s dup=15 drop=0 speed=1.01x    frame= 2968 fps= 30 q=10.0 size=   25651KiB time=00:01:38.87 bitrate=2125.3kbits/s dup=15 drop=0 speed=1.01x    frame= 2984 fps= 30 q=9.0 size=   25808KiB time=00:01:39.42 bitrate=2126.3kbits/s dup=15 drop=0 speed=1.01x    frame= 2998 fps= 30 q=9.0 size=   25915KiB time=00:01:39.86 bitrate=2125.7kbits/s dup=15 drop=0 speed=1.01x    frame= 3014 fps= 30 q=9.0 size=   26068KiB time=00:01:40.40 bitrate=2126.9kbits/s dup=15 drop=0 speed=1.01x    frame= 3029 fps= 30 q=9.0 size=   26189KiB time=00:01:40.86 bitrate=2126.9kbits/s dup=15 drop=0 speed=1.01x    frame= 3044 fps= 30 q=9.0 size=   26336KiB time=00:01:41.42 bitrate=2127.1kbits/s dup=15 drop=0 speed=1.01x    frame= 3059 fps= 30 q=10.0 size=   26453KiB time=00:01:41.86 bitrate=2127.3kbits/s dup=15 drop=0 speed=1.01x    frame= 3074 fps= 30 q=9.0 size=   26598KiB time=00:01:42.42 bitrate=2127.3kbits/s dup=15 drop=0 speed=1.01x    frame= 3089 fps= 30 q=9.0 size=   26710KiB time=00:01:42.86 bitrate=2127.2kbits/s dup=15 drop=0 speed=1.01x    frame= 3104 fps= 30 q=9.0 size=   26857KiB time=00:01:43.42 bitrate=2127.3kbits/s dup=15 drop=0 speed=1.01x    frame= 3119 fps= 30 q=9.0 size=   26972KiB time=00:01:43.86 bitrate=2127.3kbits/s dup=15 drop=0 speed=1.01x    frame= 3134 fps= 30 q=9.0 size=   27124KiB time=00:01:44.42 bitrate=2127.9kbits/s dup=15 drop=0 speed=1.01x    frame= 3150 fps= 30 q=9.0 size=   27249KiB time=00:01:44.86 bitrate=2128.7kbits/s dup=15 drop=0 speed=1.01x    frame= 3165 fps= 30 q=10.0 size=   27395KiB time=00:01:45.41 bitrate=2128.8kbits/s dup=15 drop=0 speed=1.01x    frame= 3180 fps= 30 q=10.0 size=   27538KiB time=00:01:45.97 bitrate=2128.7kbits/s dup=15 drop=0 speed=1.01x    [flv @ 0x149fbfc80] Failed to update header with correct duration.
FFmpeg: [flv @ 0x149fbfc80] Failed to update header with correct filesize.
FFmpeg: [out#0/flv @ 0x14b0be5a0] video:25851KiB audio:1602KiB subtitle:0KiB other streams:0KiB global headers:0KiB muxing overhead: 0.537038%
FFmpeg: frame= 3184 fps= 30 q=11.0 Lsize=   27601KiB time=00:01:46.12 bitrate=2130.5kbits/s dup=15 drop=0 speed=1.01x
FFmpeg: [libx264 @ 0x149fb39a0] frame I:54    Avg QP: 6.11  size: 23480
FFmpeg: [libx264 @ 0x149fb39a0] frame P:3130  Avg QP: 8.85  size:  8052
FFmpeg: [libx264 @ 0x149fb39a0] mb I  I16..4: 14.5% 37.2% 48.3%
FFmpeg: [libx264 @ 0x149fb39a0] mb P  I16..4:  3.1%  6.6%  2.6%  P16..4: 57.6% 15.1% 10.4%  0.0%  0.0%    skip: 4.6%
FFmpeg: [libx264 @ 0x149fb39a0] 8x8 transform intra:51.6% inter:21.0%
FFmpeg: [libx264 @ 0x149fb39a0] coded y,uvDC,uvAC intra: 92.7% 89.5% 81.2% inter: 63.3% 42.5% 20.6%
FFmpeg: [libx264 @ 0x149fb39a0] i16 v,h,dc,p: 10% 31% 14% 45%
FFmpeg: [libx264 @ 0x149fb39a0] i8 v,h,dc,ddl,ddr,vr,hd,vl,hu: 12% 45% 16%  2%  4%  3%  5%  4%  8%
FFmpeg: [libx264 @ 0x149fb39a0] i4 v,h,dc,ddl,ddr,vr,hd,vl,hu: 19% 23% 19%  3% 10%  7%  6%  6%  7%
FFmpeg: [libx264 @ 0x149fb39a0] i8c dc,h,v,p: 60% 17% 15%  8%
FFmpeg: [libx264 @ 0x149fb39a0] Weighted P-Frames: Y:8.7% UV:2.0%
FFmpeg: [libx264 @ 0x149fb39a0] kb/s:1995.29
FFmpeg: [aac @ 0x14b109580] Qavg: 27266.898
FFmpeg: Exiting normally, received signal 15.
